<?xml version="1.0" encoding="UTF-8" standalone="no"?>
<!-- Created with Inkscape (http://www.inkscape.org/) -->

<svg
   width="256"
   height="256"
   viewBox="0 0 67.733332 67.733332"
   version="1.1"
   id="svg142"
   xmlns="http://www.w3.org/2000/svg"
   xmlns:svg="http://www.w3.org/2000/svg">
  <defs
     id="defs139">
    <filter
       id="selectable_hidder_filter"
       width="1"
       height="1"
       x="0"
       y="0"
       style="color-interpolation-filters:sRGB;">
      <feComposite
         id="boolops_hidder_primitive"
         result="composite1"
         operator="arithmetic"
         in2="SourceGraphic"
         in="BackgroundImage" />
    </filter>
    <marker
       style="overflow:visible"
       id="Arrow1Lstart"
       refX="0"
       refY="0"
       orient="auto">
      <path
         transform="matrix(0.8,0,0,0.8,10,0)"
         style="fill:context-stroke;fill-rule:evenodd;stroke:context-stroke;stroke-width:1pt"
         d="M 0,0 5,-5 -12.5,0 5,5 Z"
         id="path13551" />
    </marker>
    <linearGradient
       id="linearGradient13421">
      <stop
         style="stop-color:#fc0000;stop-opacity:1;"
         offset="0"
         id="stop13419" />
    </linearGradient>
  </defs>
  <g
     id="layer3"
     style="display:inline;mix-blend-mode:normal">
    <g
       id="g19106"
       transform="matrix(-12.8,0,0,12.8,67.733331,0)">
      <circle
         style="display:none;opacity:1;fill:#2e95d6;fill-opacity:1;stroke-width:0;stroke-linecap:round;stroke-linejoin:round;paint-order:stroke markers fill;filter:url(#selectable_hidder_filter)"
         id="circle33726"
         cx="2.6458333"
         cy="2.6458333"
         r="2.6458333" />
      <circle
         style="opacity:1;fill:#2e95d6;fill-opacity:1;stroke-width:0;stroke-linecap:round;stroke-linejoin:round;paint-order:stroke markers fill"
         id="circle8621"
         cx="2.6458333"
         cy="2.6458333"
         r="2.6458333" />
      <g
         id="g19100">
        <path
           id="path1426"
           style="display:inline;fill:#000000;fill-opacity:0.117816;stroke-width:0;stroke-linecap:round;stroke-linejoin:round;paint-order:stroke markers fill"
           d="M 9.203125,7.1113281 7.5683594,5.4765625 8.8105469,4.234375 c 0.6531428,-0.6531899 0.6529629,-0.6536384 0,-1.3066406 L 6.515625,0.6328125 C 3.7933377,1.6462552 1.6462552,3.7933377 0.6328125,6.515625 l 2.2949219,2.2949219 c 0.6534353,0.6534826 0.6552473,0.6533922 1.3085937,0 L 5.4765625,7.5683594 7.1113281,9.203125 11.490234,13.582031 11.751953,13.84375 12.242188,13.875 13.974609,15.935547 15.345703,16 16,15.345703 15.935547,13.974609 13.875,12.242188 13.84375,11.751953 13.582031,11.490234 Z"
           transform="scale(0.26458333)" />
        <path
           id="path23612"
           style="display:inline;fill:#000000;fill-opacity:0.07;stroke:none;stroke-width:0;stroke-linecap:round;stroke-linejoin:round;stroke-miterlimit:4;stroke-dasharray:none;stroke-opacity:1;paint-order:stroke markers fill"
           d="M 6.5182088,0.63484253 C 6.1779228,0.76152288 5.8428738,0.90197625 5.5216536,1.0629921 4.5579935,1.5460398 3.6834129,2.1778076 2.9306103,2.9306103 2.1778076,3.6834129 1.5460398,4.5579935 1.0629921,5.5216536 0.90197625,5.8428738 0.76152288,6.1779228 0.63484253,6.5182088 l -0.0221457,0.022146 C 0.21503844,7.6185828 0,8.7861378 0,10.002461 c 0,5.522847 4.4796133,9.995079 10.002461,9.995079 1.25248,0 2.445791,-0.22911 3.550689,-0.649607 L 15.996555,15.346949 15.9375,13.973917 13.877953,12.239173 13.841044,11.751969 13.582677,11.493602 7.566437,5.4773625 8.8139763,4.237205 c 0.6531428,-0.6531901 0.6529629,-0.6535925 0,-1.3065947 z"
           transform="scale(0.26458333)" />
        <path
           id="path15071"
           style="display:inline;fill:#e1e1e1;fill-opacity:1;stroke-width:0;stroke-linecap:round;stroke-linejoin:round;paint-order:stroke markers fill"
           d="M 6.515625,0.6328125 A 9.9999997,9.9999997 0 0 0 0.6328125,6.515625 l 2.2949219,2.2949219 c 0.6534353,0.6534826 0.6552473,0.6533922 1.3085937,0 L 5.4765625,7.5683594 7.1113281,9.203125 9.203125,7.1113281 7.5683594,5.4765625 8.8105469,4.234375 c 0.6531428,-0.6531899 0.6529629,-0.6536384 0,-1.3066406 z M 9.6601562,7.5683594 7.5683594,9.6601562 9.0722656,11.164062 11.164062,9.0722656 Z M 11.621094,9.5292969 9.5292969,11.621094 11.033203,13.125 13.125,11.033203 Z m 1.960937,1.9609371 -2.091797,2.091797 0.261719,0.261719 0.490235,0.03125 1.732421,2.060547 L 15.345703,16 16,15.345703 15.935547,13.974609 13.875,12.242188 13.84375,11.751953 Z"
           transform="scale(0.26458333)" />
      </g>
    </g>
  </g>
</svg>
