<?xml version="1.0" encoding="UTF-8" standalone="no"?>
<!-- Created with Inkscape (http://www.inkscape.org/) -->

<svg
   width="32"
   height="32"
   viewBox="0 0 8.4666666 8.4666666"
   version="1.1"
   id="svg142"
   inkscape:version="1.1.1 (3bf5ae0d25, 2021-09-20)"
   sodipodi:docname="jack_tray_3.svg"
   xmlns:inkscape="http://www.inkscape.org/namespaces/inkscape"
   xmlns:sodipodi="http://sodipodi.sourceforge.net/DTD/sodipodi-0.dtd"
   xmlns="http://www.w3.org/2000/svg"
   xmlns:svg="http://www.w3.org/2000/svg">
  <sodipodi:namedview
     id="namedview144"
     pagecolor="#505050"
     bordercolor="#eeeeee"
     borderopacity="1"
     inkscape:pageshadow="0"
     inkscape:pageopacity="0"
     inkscape:pagecheckerboard="true"
     inkscape:document-units="mm"
     showgrid="false"
     inkscape:snap-grids="false"
     inkscape:zoom="14.714286"
     inkscape:cx="16.34466"
     inkscape:cy="21.203883"
     inkscape:window-width="1920"
     inkscape:window-height="1039"
     inkscape:window-x="0"
     inkscape:window-y="20"
     inkscape:window-maximized="1"
     inkscape:current-layer="layer3"
     units="px" />
  <defs
     id="defs139" />
  <g
     inkscape:groupmode="layer"
     id="layer3"
     inkscape:label="View Layer"
     style="display:inline">
    <path
       id="use11097"
       style="fill:#ffffff;fill-opacity:1;stroke:#000000;stroke-width:0;stroke-linecap:butt;stroke-linejoin:round;stroke-miterlimit:1.3;stroke-dasharray:none;stroke-dashoffset:0;stroke-opacity:1"
       d="m 20.234375,0 -3.855469,3.8554688 c -1.305926,1.3060055 -1.306286,1.3088535 0,2.6152343 l 2.482422,2.4824219 -3.267578,3.269531 4.183594,4.181641 3.267578,-3.267578 2.484375,2.484375 c 1.306694,1.306785 1.30641,1.306966 2.613281,0 L 32,11.763672 V 0 Z m -5.554687,13.136719 -3.00586,3.005859 4.181641,4.183594 3.005859,-3.00586 z m -3.921876,3.921875 -3.0058589,3.005859 4.1816409,4.183594 3.007812,-3.005859 z M 6.8359375,20.980469 6.3144531,21.503906 6.2480469,22.484375 2.1308594,25.947266 2,28.693359 3.3066406,30 6.0527344,29.869141 9.515625,25.751953 l 0.980469,-0.06641 0.523437,-0.521485 z"
       transform="scale(0.26458333)" />
  </g>
</svg>
